<?xml version="1.0" encoding="UTF-8" standalone="no"?>
<!-- Created with Inkscape (http://www.inkscape.org/) -->

<svg
   width="26.457251mm"
   height="22.324211mm"
   viewBox="0 0 26.457251 22.324211"
   version="1.1"
   id="svg1"
   xml:space="preserve"
   xmlns="http://www.w3.org/2000/svg"
   xmlns:svg="http://www.w3.org/2000/svg"><defs
     id="defs1" /><g
     id="layer1"
     transform="translate(-92.07554,-133.3215)"><g
       id="g3"
       transform="matrix(0.26458333,0,0,0.26458333,92.075516,130.84114)"><path
         d="M 22.578,46.875 33.055,30.41 c 0.28906,-0.44922 0.78516,-0.72266 1.3203,-0.72266 h 0.0078 c 0.53516,0 1.0352,0.28125 1.3203,0.73438 l 14.301,22.883 14.301,-22.883 c 0.28516,-0.45312 0.78125,-0.73438 1.3203,-0.73438 h 0.0078 c 0.53516,0 1.0312,0.27344 1.3203,0.72266 l 10.477,16.465 h 16.691 c 1.1875,-5.2969 1.1992,-8.6719 1.1992,-13.391 0,-6.5938 -2.5625,-12.625 -6.6875,-17 -4.1094,-4.375 -9.7812,-7.1094 -15.969,-7.1094 -5.9531,0 -11.656,2.75 -15.859,7.2344 l -6.7969,7.2344 -6.7969,-7.2344 c -2.1094,-2.2344 -4.5781,-4.0469 -7.2656,-5.2969 -2.7031,-1.25 -5.625,-1.9375 -8.5938,-1.9375 -6.1875,0 -11.859,2.7344 -15.969,7.1094 -4.125,4.375 -6.6875,10.406 -6.6875,17 0,4.7188 0.015626,8.0938 1.1992,13.391 z M 32.812,17.187 c 0.86328,0 1.5625,0.69922 1.5625,1.5625 0,0.86328 -0.69922,1.5625 -1.5625,1.5625 -0.86328,0 -1.5625,-0.69922 -1.5625,-1.5625 0,-0.86328 0.69922,-1.5625 1.5625,-1.5625 z m -5.4688,-1.5625 c 0.86328,0 1.5625,0.69922 1.5625,1.5625 0,0.86328 -0.69922,1.5625 -1.5625,1.5625 -7.1992,0 -13.281,6.7461 -13.281,14.734 0,0.86328 -0.69922,1.5625 -1.5625,1.5625 -0.86328,0 -1.5625,-0.69922 -1.5625,-1.5625 0,-9.6797 7.5156,-17.859 16.406,-17.859 z"
         id="path1" /><path
         d="M 98.781,50 H 76.562 c -0.53516,0 -1.0312,-0.27344 -1.3203,-0.72266 l -9.6055,-15.098 -14.312,22.898 c -0.28516,0.45703 -0.78516,0.73438 -1.3242,0.73438 -0.53904,0 -1.0391,-0.27734 -1.3242,-0.73438 l -14.312,-22.898 -9.6055,15.098 C 24.46924,49.72656 23.97314,50 23.438,50 H 1.211 C 0.46491,50.82812 1e-4,51.918 1e-4,53.125 c 0,1.207 0.47266,2.2969 1.2188,3.125 h 26 l 5.8008,-10.148 c 0.26953,-0.46875 0.76172,-0.76562 1.3047,-0.78516 0.54688,-0.04297 1.0547,0.24609 1.3516,0.69531 L 50,67.50015 64.324,46.01215 c 0.30078,-0.44922 0.80078,-0.75781 1.3516,-0.69531 0.54297,0.01953 1.0352,0.31641 1.3047,0.78516 l 5.8008,10.148 h 26.004 c 0.74609,-0.82812 1.2109,-1.918 1.2109,-3.125 0,-1.207 -0.47266,-2.2969 -1.2188,-3.125 z"
         id="path2" /><path
         d="m 71.875,59.375 c -0.5625,0 -1.0781,-0.30078 -1.3555,-0.78906 l -4.9961,-8.7422 -14.223,21.332 c -0.28906,0.43359 -0.77734,0.69531 -1.3008,0.69531 -0.52346,0 -1.0078,-0.26172 -1.3008,-0.69531 l -14.223,-21.332 -4.9961,8.7422 C 29.20236,59.07422 28.68282,59.375 28.1242,59.375 h -15.707 c 2.3242,3.5273 5.1094,6.75 8.3633,9.5156 l 29.219,24.859 29.219,-24.859 c 3.2539,-2.7656 6.0391,-5.9883 8.3633,-9.5156 z m 1.0117,6.6875 -13.734,11.688 c -0.29297,0.25 -0.65234,0.37109 -1.0117,0.37109 -0.44141,0 -0.88281,-0.1875 -1.1914,-0.55078 -0.55859,-0.65625 -0.48047,-1.6445 0.17969,-2.2031 l 13.734,-11.688 c 0.65625,-0.55859 1.6445,-0.48047 2.2031,0.17578 0.5586,0.65625 0.48047,1.6445 -0.17969,2.2031 z"
         id="path3" /></g></g></svg>
